<svg width="160" height="40" viewBox="0 0 160 40" fill="none" xmlns="http://www.w3.org/2000/svg">
<path d="M15.3286 0.514648C11.7115 2.73547 11.1534 6.51859 12.3392 10.6242C13.7431 15.4849 16.6881 19.3452 20.4346 22.6321C23.3236 25.1657 26.5525 27.1432 30.3684 27.9041C31.7067 28.1706 33.1396 28.2169 34.4991 28.074C36.5809 27.8577 38.205 26.7338 39.3579 24.7273C38.6453 29.1091 35.4319 31.3087 30.998 30.9456C26.2937 30.5594 22.4005 28.3444 18.8742 25.4129C14.5812 21.8442 11.279 17.5474 9.63556 12.1228C9.11995 10.4195 8.80903 8.66602 9.08905 6.89709C9.68384 3.16612 11.3427 1.47057 15.3286 0.514648Z" fill="#ffffff"/>
<path d="M23.144 0.261664C19.243 0.184418 17.0338 3.07728 17.5803 6.82177C18.3315 11.9837 21.3442 15.7417 25.2432 18.9049C27.3809 20.641 29.7891 21.9079 32.5352 22.354C33.5181 22.5142 34.5725 22.522 35.5535 22.3578C37.9173 21.9581 39.7538 20.052 39.6649 16.8541C40.0203 18.3256 40.0145 20.3108 39.636 21.5332C38.7071 24.5323 36.1232 25.7721 33.1261 25.579C28.8872 25.3067 25.4112 23.2655 22.2962 20.5715C18.7969 17.5435 16.0953 13.938 14.8497 9.39212C14.3785 7.67147 14.1912 5.93151 14.7126 4.17417C15.4367 1.73706 17.4683 0.118759 20.0059 0.0202708C21.0661 -0.0202832 22.1301 0.0125446 23.1923 0.0125446C23.1749 0.0975151 23.1594 0.178625 23.144 0.261664Z" fill="#ffffff"/>
<path d="M36.2951 31.6833C34.0762 35.4181 30.2467 36.2814 25.6043 35.1574C20.7996 33.9949 16.8059 31.3705 13.2893 27.9871C9.33818 24.1885 6.28311 19.8164 4.94096 14.4092C4.50452 12.6557 4.33458 10.8772 4.67253 9.0754C5.1109 6.7503 6.34297 4.97944 8.2857 3.78986C7.88016 4.73225 7.32206 5.70555 7.04011 6.75223C6.27538 9.58136 6.78714 12.3641 7.89368 14.9789C11.6015 23.7386 17.8255 29.8661 26.9985 32.7725C28.8969 33.3731 30.8898 33.5353 32.8287 33.0428C34.0897 32.7261 35.2696 32.0966 36.2951 31.6833Z" fill="#ffffff"/>
<path d="M34.7038 6.58811C36.7875 8.58684 38.1104 11.0085 38.6646 13.8357C38.7863 14.4517 38.8654 15.1122 38.7785 15.7282C38.3537 18.7756 36.0827 20.2973 32.9407 19.7006C27.2361 18.6153 21.518 12.9995 20.4037 7.29297C20.226 6.37761 20.2338 5.36376 20.4269 4.45226C20.9348 2.04798 23.0803 0.796597 25.8804 1.26973C29.4569 1.87418 32.286 3.81305 34.6826 6.45486C34.7173 6.49348 34.7173 6.563 34.7328 6.61707C34.5223 6.42203 34.3041 6.23277 34.0994 6.03C32.4888 4.44067 30.6812 3.18157 28.4527 2.61574C25.7298 1.92438 23.7755 3.00197 23.4414 5.46804C23.341 6.21539 23.4453 7.04386 23.6693 7.76997C24.8782 11.6883 27.5026 14.3668 31.2027 16.0063C31.979 16.35 32.8596 16.5258 33.7093 16.6204C35.8567 16.8637 37.589 15.3709 37.504 13.2235C37.4576 12.0726 37.1602 10.8733 36.7006 9.81505C36.2024 8.66795 35.3836 7.65796 34.7038 6.58811Z" fill="#ffffff"/>
<path d="M30.9169 36.6966C28.1302 38.8363 25.1427 38.9676 22.0915 38.2666C16.4371 36.9669 11.9665 33.6975 8.13315 29.4876C4.99118 26.0367 2.60041 22.1377 1.62519 17.5049C1.00915 14.5753 1.21578 11.7559 3.11023 9.22026C2.9596 10.2882 2.70857 11.3194 2.68926 12.3526C2.62746 15.6819 3.66835 18.7447 5.28085 21.595C9.20494 28.5336 14.7145 33.7052 22.3155 36.4204C25.0616 37.4034 27.885 37.6679 30.9169 36.6966Z" fill="#ffffff"/>
<path d="M0.389253 16.0681C0.277247 19.5963 1.38572 22.6572 3.06388 25.5075C6.64036 31.5829 11.5629 36.1848 18.2408 38.676C19.8649 39.2824 21.6435 39.4813 23.0204 39.7922C20.4713 40.3078 17.673 39.8482 15.0312 38.5872C8.10998 35.2791 3.16236 30.1307 0.638367 22.802C-0.103193 20.6468 -0.215195 18.4453 0.389253 16.0681Z" fill="#ffffff"/>
<path d="M1.21965 26.8844C4.00244 32.1507 8.00763 36.1713 13.3299 38.8537C7.5905 36.5962 3.5911 32.5678 1.21965 26.8844Z" fill="#ffffff"/>
<path d="M35.961 11.4411C35.9011 13.1617 34.8197 14.0365 32.9658 13.8337C29.959 13.5035 26.4694 9.91931 26.1952 6.87583C26.0059 4.77474 27.3095 3.60254 29.3526 4.13361C32.5738 4.96786 34.6324 7.08244 35.7273 10.1742C35.8702 10.574 35.8876 11.0181 35.961 11.4411ZM33.7653 9.58716C33.746 8.10018 31.8843 6.21345 30.4186 6.19414C29.6519 6.18448 29.0919 6.75224 29.1209 7.51118C29.1788 9.00781 31.0655 10.827 32.5545 10.8212C33.3791 10.8192 33.7749 10.4137 33.7653 9.58716Z" fill="#ffffff"/>
<path d="M62.0625 27.9543H61.8945C61.7168 29.1362 61.1143 30.1152 60.0889 30.8954C59.0635 31.6756 57.6711 32.0657 55.9118 32.0657C54.5755 32.0657 53.326 31.8089 52.1693 31.2971C51.0106 30.7854 49.9967 30.0264 49.1277 29.0242C48.2587 28.0219 47.5789 26.7744 47.0884 25.2816C46.5979 23.7888 46.3527 22.0624 46.3527 20.1003C46.3527 18.1402 46.6095 16.4022 47.1213 14.8862C47.633 13.3722 48.3514 12.1015 49.2764 11.0761C50.2014 10.0507 51.3099 9.27047 52.6018 8.73748C53.8938 8.20255 55.3306 7.93605 56.9141 7.93605C59.0075 7.93605 60.8131 8.38794 62.329 9.28978C63.845 10.1916 65.0365 11.5454 65.9055 13.351L61.7613 15.7244C61.404 14.8109 60.8478 14.0365 60.0908 13.4012C59.3338 12.7658 58.2736 12.4491 56.916 12.4491C55.3344 12.4491 54.0753 12.9068 53.1387 13.8202C52.2021 14.7337 51.7348 16.1705 51.7348 18.1325V21.8751C51.7348 23.8139 52.2021 25.2449 53.1387 26.1699C54.0753 27.0949 55.3325 27.5565 56.916 27.5565C57.5398 27.5565 58.1307 27.485 58.6869 27.3383C59.2431 27.1934 59.7336 26.9713 60.1584 26.6701C60.5813 26.3688 60.9096 26.0077 61.1452 25.5848C61.3789 25.1619 61.4967 24.6598 61.4967 24.0804V22.9101H57.1516V18.6655H66.3419V31.666H62.0645V27.9543H62.0625Z" fill="#ffffff"/>
<path d="M76.6678 32.0658C75.3314 32.0658 74.138 31.8476 73.0913 31.415C72.0446 30.9805 71.1582 30.3683 70.434 29.5766C69.7098 28.7867 69.1633 27.8211 68.7964 26.6856C68.4295 25.5501 68.2441 24.2794 68.2441 22.8755C68.2441 21.4947 68.4218 20.2414 68.779 19.1155C69.1344 17.9916 69.6654 17.026 70.3664 16.2246C71.0674 15.4232 71.9326 14.8052 72.9561 14.3707C73.9815 13.9362 75.1499 13.7199 76.465 13.7199C77.9133 13.7199 79.1551 13.9652 80.1921 14.4557C81.2272 14.9462 82.075 15.6028 82.7316 16.4274C83.3881 17.252 83.8671 18.204 84.1683 19.2855C84.4696 20.3669 84.6202 21.4966 84.6202 22.6785V24.1481H73.3578V24.4127C73.3578 25.5617 73.6687 26.4732 74.2944 27.1472C74.9181 27.8211 75.8992 28.1591 77.2355 28.1591C78.261 28.1591 79.0952 27.9544 79.7421 27.5469C80.3891 27.1375 80.9897 26.647 81.5478 26.0715L84.0216 29.1556C83.2414 30.0709 82.2217 30.7874 80.9646 31.3011C79.7035 31.809 78.2725 32.0658 76.6678 32.0658ZM76.5673 17.3601C75.5651 17.3601 74.7791 17.6884 74.2113 18.3469C73.6436 19.0035 73.3597 19.8783 73.3597 20.9714V21.2379H79.5085V20.9366C79.5085 19.8668 79.269 19.0035 78.7901 18.3469C78.3112 17.6884 77.5696 17.3601 76.5673 17.3601Z" fill="#ffffff"/>
<path d="M93.5788 32.0658C92.2869 32.0658 91.134 31.8533 90.1201 31.4304C89.1063 31.0075 88.2488 30.3934 87.5459 29.592C86.8449 28.7905 86.3042 27.8211 85.9257 26.6837C85.5472 25.5482 85.3579 24.2775 85.3579 22.8735C85.3579 21.4696 85.5472 20.1989 85.9257 19.0634C86.3042 17.9279 86.8449 16.9642 87.5459 16.1724C88.2469 15.3826 89.1043 14.7743 90.1201 14.3514C91.134 13.9285 92.2869 13.716 93.5788 13.716C94.8707 13.716 96.0236 13.9285 97.0375 14.3514C98.0513 14.7743 98.9088 15.3826 99.6117 16.1724C100.313 16.9642 100.853 17.9279 101.232 19.0634C101.61 20.1989 101.8 21.4696 101.8 22.8735C101.8 24.2775 101.61 25.5482 101.232 26.6837C100.853 27.8192 100.313 28.7886 99.6117 29.592C98.9107 30.3934 98.0513 31.0075 97.0375 31.4304C96.0236 31.8533 94.8707 32.0658 93.5788 32.0658ZM93.5788 28.1552C94.5598 28.1552 95.3168 27.8539 95.8518 27.2534C96.3867 26.6528 96.6532 25.7934 96.6532 24.6791V21.1027C96.6532 19.9884 96.3867 19.131 95.8518 18.5284C95.3168 17.9279 94.5598 17.6266 93.5788 17.6266C92.5978 17.6266 91.8408 17.9279 91.3058 18.5284C90.7709 19.131 90.5044 19.9884 90.5044 21.1027V24.6791C90.5044 25.7934 90.7709 26.6508 91.3058 27.2534C91.8408 27.8539 92.5978 28.1552 93.5788 28.1552Z" fill="#ffffff"/>
<path d="M112.394 32.0658C109.586 32.0658 107.414 31.0635 105.876 29.0571C104.339 27.0525 103.571 24.0438 103.571 20.0328C103.571 16.0218 104.339 13.0035 105.876 10.9757C107.414 8.94805 109.586 7.9342 112.394 7.9342C114.176 7.9342 115.696 8.3745 116.955 9.2551C118.214 10.1357 119.166 11.3098 119.813 12.7814L118.776 13.3491C118.197 12.0128 117.367 10.9603 116.287 10.1917C115.206 9.42311 113.908 9.03881 112.394 9.03881C110.055 9.03881 108.221 9.88658 106.896 11.5783C105.569 13.2719 104.907 15.7785 104.907 19.0981V20.9694C104.907 24.2891 105.569 26.7841 106.896 28.4565C108.221 30.1269 110.053 30.9631 112.394 30.9631C114.02 30.9631 115.385 30.5576 116.488 29.7426C117.591 28.9296 118.421 27.8095 118.977 26.3843L119.979 26.9193C119.333 28.4796 118.369 29.7272 117.089 30.6618C115.808 31.5965 114.244 32.0658 112.394 32.0658Z" fill="#ffffff"/>
<path d="M134.552 31.6641C133.638 31.6641 133.16 31.1968 133.115 30.2602V29.0242H132.982C132.58 29.8932 131.945 30.6174 131.076 31.1968C130.207 31.7761 129.037 32.0658 127.567 32.0658C125.806 32.0658 124.448 31.6429 123.49 30.7951C122.532 29.9492 122.054 28.7558 122.054 27.2186C122.054 26.4828 122.166 25.8147 122.388 25.2141C122.61 24.6116 122.982 24.094 123.508 23.6595C124.031 23.225 124.711 22.8909 125.547 22.6572C126.383 22.4236 127.412 22.3058 128.639 22.3058H133.084V20.0328C133.084 18.428 132.694 17.2423 131.914 16.4737C131.134 15.7051 129.975 15.3208 128.438 15.3208C126.053 15.3208 124.406 16.3231 123.492 18.3295L122.656 17.7618C123.123 16.7151 123.815 15.8731 124.728 15.2378C125.642 14.6024 126.889 14.2857 128.471 14.2857C130.363 14.2857 131.802 14.7704 132.781 15.7399C133.762 16.7093 134.253 18.0959 134.253 19.9015V30.629H136.86V31.666H134.552V31.6641ZM127.667 31.0288C128.403 31.0288 129.098 30.9341 129.757 30.7449C130.413 30.5556 130.987 30.2833 131.478 29.9261C131.968 29.5707 132.358 29.1246 132.648 28.5897C132.937 28.0548 133.082 27.431 133.082 26.7184V23.2424H128.637C126.766 23.2424 125.406 23.5591 124.56 24.1944C123.712 24.8298 123.289 25.6718 123.289 26.7184V27.655C123.289 28.7693 123.695 29.6094 124.51 30.179C125.323 30.7449 126.375 31.0288 127.667 31.0288Z" fill="#ffffff"/>
<path d="M143.843 32.0658C142.439 32.0658 141.218 31.8089 140.183 31.2972C139.146 30.7854 138.238 29.9821 137.46 28.891L138.362 28.2228C139.119 29.2251 139.926 29.9435 140.786 30.378C141.643 30.8125 142.674 31.0307 143.877 31.0307C145.391 31.0307 146.54 30.7198 147.321 30.0941C148.101 29.4703 148.491 28.5685 148.491 27.3866C148.491 26.2511 148.163 25.4033 147.504 24.8472C146.848 24.291 145.838 23.9009 144.48 23.6769L143.043 23.4432C142.286 23.3312 141.601 23.1651 140.988 22.9411C140.374 22.719 139.853 22.4236 139.418 22.0547C138.984 21.6878 138.65 21.2359 138.416 20.701C138.182 20.1661 138.065 19.5211 138.065 18.7621C138.065 18.0264 138.204 17.3814 138.482 16.8233C138.76 16.2671 139.15 15.7978 139.652 15.4193C140.154 15.0408 140.743 14.7569 141.423 14.5677C142.103 14.3784 142.831 14.2838 143.611 14.2838C145.036 14.2838 146.195 14.5349 147.087 15.035C147.977 15.5371 148.713 16.1203 149.292 16.7904L148.456 17.559C148.211 17.2694 147.939 16.9913 147.637 16.7228C147.336 16.4563 146.996 16.2169 146.618 16.0045C146.239 15.792 145.799 15.626 145.297 15.5024C144.795 15.3807 144.221 15.3189 143.576 15.3189C142.24 15.3189 141.176 15.6086 140.384 16.1879C139.592 16.7673 139.198 17.6131 139.198 18.7274C139.198 19.8629 139.532 20.6933 140.201 21.2166C140.869 21.74 141.883 22.1146 143.242 22.3367L144.679 22.5703C146.26 22.8156 147.481 23.3003 148.338 24.0245C149.196 24.7487 149.624 25.8359 149.624 27.2823C149.624 28.7983 149.113 29.9724 148.087 30.8086C147.064 31.6467 145.648 32.0658 143.843 32.0658Z" fill="#ffffff"/>
<path d="M155.341 31.6641C154.383 31.6641 153.904 31.1968 153.904 30.2601V15.7225H150.83V14.6855H153.035C153.413 14.6855 153.664 14.6082 153.786 14.4518C153.908 14.2954 153.97 14.0289 153.97 13.6504V9.87305H155.072V14.6855H159.048V15.7225H155.072V30.629H158.782V31.666H155.341V31.6641Z" fill="#ffffff"/>
</svg>
